<svg width="373" height="114" viewBox="0 0 373 114" fill="none" xmlns="http://www.w3.org/2000/svg">
    <path fill-rule="evenodd" clip-rule="evenodd" d="M79.5416 4.42269e-07C80.1774 -0.000353633 80.7951 0.211903 81.2964 0.603008C81.7976 0.994113 82.1537 1.54161 82.308 2.1584L83.2884 6.0952C84.1852 9.6672 86.9744 12.4564 90.5464 13.3532L94.4832 14.3336C95.1012 14.4867 95.6501 14.8423 96.0425 15.3436C96.4348 15.845 96.648 16.4633 96.648 17.1C96.648 17.7367 96.4348 18.355 96.0425 18.8564C95.6501 19.3578 95.1012 19.7133 94.4832 19.8664L90.5464 20.8468C86.9744 21.7436 84.1852 24.5328 83.2884 28.1048L82.308 32.0416C82.155 32.6596 81.7994 33.2085 81.298 33.6009C80.7966 33.9932 80.1783 34.2064 79.5416 34.2064C78.905 34.2064 78.2867 33.9932 77.7853 33.6009C77.2839 33.2085 76.9283 32.6596 76.7752 32.0416L75.7948 28.1048C75.3563 26.3508 74.4494 24.749 73.171 23.4706C71.8926 22.1922 70.2908 21.2853 68.5368 20.8468L64.6 19.8664C63.982 19.7133 63.4331 19.3578 63.0408 18.8564C62.6484 18.355 62.4352 17.7367 62.4352 17.1C62.4352 16.4633 62.6484 15.845 63.0408 15.3436C63.4331 14.8423 63.982 14.4867 64.6 14.3336L68.5368 13.3532C70.2908 12.9147 71.8926 12.0078 73.171 10.7294C74.4494 9.45099 75.3563 7.84917 75.7948 6.0952L76.7752 2.1584C76.9295 1.54161 77.2856 0.994113 77.7869 0.603008C78.2882 0.211903 78.9058 -0.000353633 79.5416 4.42269e-07Z" fill="#FAFAFA"/>
    <rect x="19" y="38" width="7.6" height="38" rx="3.8" fill="#FAFAFA"/>
    <rect y="49.4" width="7.6" height="15.2" rx="3.8" fill="#FAFAFA"/>
    <rect x="38" y="7.59999" width="7.6" height="106.4" rx="3.8" fill="#FAFAFA"/>
    <rect x="57" y="26.6" width="7.6" height="68.4" rx="3.8" fill="#FAFAFA"/>
    <rect x="76" y="41.8" width="7.6" height="38" rx="3.8" fill="#FAFAFA"/>
    <path d="M333.369 105.002C326.62 105.002 320.784 103.406 315.859 100.214C310.934 96.9305 307.149 92.5073 304.504 86.9441C301.86 81.3809 300.537 75.2249 300.537 68.4761C300.537 61.6361 301.996 55.4801 304.915 50.0081C307.833 44.4449 312.028 40.0673 317.5 36.8753C322.972 33.5921 329.539 31.9505 337.2 31.9505C344.587 31.9505 350.925 33.5465 356.215 36.7385C361.504 39.9305 365.563 44.2625 368.39 49.7345C371.308 55.2065 372.768 61.3169 372.768 68.0657V103.36H360.045V89.1329H359.772C358.404 91.7777 356.534 94.3313 354.163 96.7937C351.883 99.1649 349.01 101.126 345.544 102.676C342.079 104.226 338.02 105.002 333.369 105.002ZM336.652 94.1945C341.212 94.1945 345.225 93.1001 348.691 90.9113C352.248 88.6313 354.984 85.5305 356.899 81.6089C358.905 77.5961 359.908 73.1273 359.908 68.2025C359.908 63.3689 358.951 59.0369 357.036 55.2065C355.212 51.3761 352.567 48.3665 349.101 46.1777C345.636 43.8977 341.577 42.7577 336.926 42.7577C332.001 42.7577 327.76 43.8977 324.204 46.1777C320.738 48.4577 318.048 51.5585 316.132 55.4801C314.308 59.3105 313.396 63.6881 313.396 68.6129C313.396 73.3553 314.308 77.6873 316.132 81.6089C317.956 85.4393 320.601 88.4945 324.067 90.7745C327.532 93.0545 331.728 94.1945 336.652 94.1945Z" fill="#FAFAFA"/>
    <path d="M266.135 103.36V53.4279C266.135 47.2263 267.868 42.3927 271.334 38.9271C274.891 35.3703 279.77 33.5919 285.972 33.5919H300.335V44.3991H288.297C285.288 44.3991 282.916 45.2655 281.183 46.9983C279.542 48.7311 278.721 51.1479 278.721 54.2487V103.36H266.135Z" fill="#FAFAFA"/>
    <path d="M221.344 105.002C214.231 105.002 207.938 103.406 202.466 100.214C196.994 96.9305 192.662 92.5529 189.47 87.0809C186.278 81.5177 184.682 75.3161 184.682 68.4761C184.682 61.6361 186.278 55.4801 189.47 50.0081C192.662 44.4449 196.994 40.0673 202.466 36.8753C207.938 33.5921 214.231 31.9505 221.344 31.9505C228.458 31.9505 234.751 33.5921 240.223 36.8753C245.786 40.0673 250.118 44.3993 253.219 49.8713C256.411 55.3433 258.007 61.5449 258.007 68.4761C258.007 75.3161 256.411 81.5177 253.219 87.0809C250.118 92.5529 245.786 96.9305 240.223 100.214C234.751 103.406 228.458 105.002 221.344 105.002ZM221.344 94.1945C226.178 94.1945 230.373 93.0545 233.93 90.7745C237.487 88.4945 240.268 85.4393 242.275 81.6089C244.281 77.6873 245.284 73.3097 245.284 68.4761C245.284 63.6425 244.281 59.3105 242.275 55.4801C240.268 51.5585 237.487 48.4577 233.93 46.1777C230.373 43.8977 226.178 42.7577 221.344 42.7577C216.602 42.7577 212.407 43.8977 208.759 46.1777C205.202 48.4577 202.42 51.5585 200.414 55.4801C198.407 59.3105 197.404 63.6425 197.404 68.4761C197.404 73.3097 198.407 77.6873 200.414 81.6089C202.42 85.4393 205.202 88.4945 208.759 90.7745C212.407 93.0545 216.602 94.1945 221.344 94.1945Z" fill="#FAFAFA"/>
    <path d="M156.347 103.36C151.149 103.36 146.634 102.266 142.804 100.077C139.065 97.7968 136.146 94.7416 134.049 90.9112C132.042 86.9896 131.039 82.612 131.039 77.7784V7.59999H144.172V79.42C144.172 82.9768 145.266 85.9408 147.455 88.312C149.735 90.592 152.699 91.732 156.347 91.732H182.066V103.36H156.347Z" fill="#FAFAFA"/>
</svg>
